<svg width="273" height="101" viewBox="0 0 273 101" fill="none" xmlns="http://www.w3.org/2000/svg">
<path d="M197.08 82.84C214.433 82.84 228.5 68.7728 228.5 51.42C228.5 34.0672 214.433 20 197.08 20C179.727 20 165.66 34.0672 165.66 51.42C165.66 68.7728 179.727 82.84 197.08 82.84Z" fill="#FDC801"/>
<path d="M52.25 20.9202L34.48 61.5802C33.51 63.8402 31.67 68.8602 31.67 68.8602C31.67 68.8602 30.32 64.8401 28.98 61.9501L10.23 20.9102H0.549988L27.38 78.0101L26.03 80.7802C21.99 89.5702 17.94 91.4402 11.45 91.4402V100.49C18.43 100.49 26.88 99.4701 33.37 85.0401L61.78 20.9202H52.25Z" fill="white"/>
<path d="M119.7 51.1502C119.7 33.7102 107.09 19.6602 91.17 19.6602C74.15 19.6602 61.16 33.8402 61.16 51.5402C61.16 70.8602 75.5 83.2901 92.4 83.2901C100.61 83.2901 108.57 80.4001 114.94 75.2601L110.9 68.2301C106 72.3701 99.27 74.7502 92.52 74.7502C81.5 74.7502 72.32 67.0901 70.85 54.9202H119.47C119.46 54.8002 119.7 52.9202 119.7 51.1502ZM70.84 47.6402C72.19 36.2302 80.52 28.2001 90.67 28.2001C101.08 28.2001 109.54 36.3502 110.51 47.6402H70.84Z" fill="white"/>
<path d="M272.41 78.7602C270.09 80.3902 265.19 83.2802 258.7 83.2802C255.87 83.2802 253.35 82.9102 251.18 82.0502C245.26 79.7902 241.92 74.1702 241.92 63.7002V28.8102H232.98V20.9002H241.88V0.490234H251.18V5.99023L251.22 5.98024V20.9002H271.56V28.8102H251.22V63.9502C251.22 72.3502 254.78 74.7502 259.55 74.7502C265.07 74.7502 269.34 71.3602 269.34 71.3602L272.41 78.7602Z" fill="white"/>
<path d="M136.93 0.490234H127.62V83.2902H136.93V0.490234Z" fill="white"/>
<path d="M155.55 0.490234H146.24V83.2902H155.55V0.490234Z" fill="white"/>
</svg>
